<svg fill="none" height="20" viewBox="0 0 20 20" width="20" xmlns="http://www.w3.org/2000/svg"><g fill="#fff"><path d="m5 6.5c0-.27614.22386-.5.5-.5h7c.2761 0 .5.22386.5.5s-.2239.5-.5.5h-7c-.27614 0-.5-.22386-.5-.5z"/><path d="m10.5 9c-.2761 0-.5.22386-.5.5s.2239.5.5.5h2c.2761 0 .5-.22386.5-.5s-.2239-.5-.5-.5z"/><path d="m10 12.5c0-.2761.2239-.5.5-.5h2c.2761 0 .5.2239.5.5s-.2239.5-.5.5h-2c-.2761 0-.5-.2239-.5-.5z"/><path d="m5.5 9c-.27614 0-.5.22386-.5.5v3c0 .2761.22386.5.5.5h3c.27614 0 .5-.2239.5-.5v-3c0-.27614-.22386-.5-.5-.5zm.5 3v-2h2v2z"/><path d="m2 5c0-1.10457.89543-2 2-2h10c1.1046 0 2 .89543 2 2v1c1.1046 0 2 .89543 2 2v5.5c0 1.3807-1.1193 2.5-2.5 2.5h-11c-1.38071 0-2.5-1.1193-2.5-2.5zm13 0c0-.55228-.4477-1-1-1h-10c-.55229 0-1 .44772-1 1v8.5c0 .8284.67157 1.5 1.5 1.5h11c.8284 0 1.5-.6716 1.5-1.5v-5.5c0-.55228-.4477-1-1-1v6.5c0 .2761-.2239.5-.5.5s-.5-.2239-.5-.5z"/></g></svg>